# xmcd
#
# Track frame offsets:
#	200
#	13010
#	28282
#	39440
#	51287
#	65085
#	78682
#	90450
#	101250
#	113910
#
# Disc length: 1655 seconds
#
# Revision: 1
# Processed by: cddbd v1.5.2PL0 Copyright (c) Steve Scherf et al.
# Submitted via: audiograbber 1.83.01
#
DISCID=7f06750a
DTITLE=Ricky Skaggs - Sweet Temptation
DYEAR=1979
DGENRE=Country
TTITLE0=I'll Take the Blame
TTITLE1=Little Cabin Home on the Hill
TTITLE2=Baby I'm in Love with You
TTITLE3=I'll Stay Around
TTITLE4=Could You Love Me One More Time
TTITLE5=Sweet Temptation
TTITLE6=Put It Off until Tomorrow
TTITLE7=Baby Girl
TTITLE8=Forgive Me
TTITLE9=I Know What It Means to Be Lonesome
EXTD=
EXTT0=
EXTT1=
EXTT2=
EXTT3=
EXTT4=
EXTT5=
EXTT6=
EXTT7=
EXTT8=
EXTT9=
PLAYORDER=
